<svg xmlns="http://www.w3.org/2000/svg" viewBox="0 0 512 512">
  <title>Rigatoni on a fork with dripping tomato sauce</title>
  <rect width="512" height="512" rx="112" fill="#8f2d23"/>
  <circle cx="256" cy="244" r="190" fill="#fff0c7"/>

  <g transform="rotate(-14 256 256)">
    <path d="M240 454c-13 0-23-10-23-23V203h46v228c0 13-10 23-23 23z" fill="#aeb6bc" stroke="#5d6266" stroke-width="9"/>
    <path d="M205 73v105c0 26 16 43 35 43s35-17 35-43V73" fill="none" stroke="#5d6266" stroke-width="48" stroke-linecap="round" stroke-linejoin="round"/>
    <path d="M205 73v105c0 26 16 43 35 43s35-17 35-43V73M240 75v99" fill="none" stroke="#e4e8ea" stroke-width="28" stroke-linecap="round" stroke-linejoin="round"/>
    <path d="M240 221v210" fill="none" stroke="#e4e8ea" stroke-width="27" stroke-linecap="round"/>
  </g>

  <g transform="rotate(10 256 245)">
    <path d="M134 250c67-65 167-68 250-5" fill="none" stroke="#bf771c" stroke-width="104" stroke-linecap="round"/>
    <path d="M134 240c67-65 167-68 250-5" fill="none" stroke="#f4bd4f" stroke-width="78" stroke-linecap="round"/>
    <g fill="none" stroke="#d9962e" stroke-width="8" stroke-linecap="round" opacity=".85">
      <path d="M164 207l-10 72"/>
      <path d="M195 187l-7 76"/>
      <path d="M228 176l-3 77"/>
      <path d="M262 174l2 77"/>
      <path d="M297 180l7 76"/>
      <path d="M331 193l11 72"/>
      <path d="M361 211l14 65"/>
    </g>
    <ellipse cx="132" cy="244" rx="39" ry="49" fill="#d99a31" transform="rotate(49 132 244)"/>
    <ellipse cx="132" cy="244" rx="18" ry="27" fill="#77451f" transform="rotate(49 132 244)"/>
    <ellipse cx="385" cy="240" rx="39" ry="49" fill="#d99a31" transform="rotate(-48 385 240)"/>
    <ellipse cx="385" cy="240" rx="18" ry="27" fill="#77451f" transform="rotate(-48 385 240)"/>

    <path d="M158 230c58-45 139-48 210-8l-4 45c-18-7-23 8-24 27-1 23-12 37-28 34-18-3-14-29-16-45-2-17-19-19-23-3l-5 27c-4 20-30 20-34 0l-4-21c-3-17-19-19-24-4-5 16-4 41-22 42-18 2-24-17-21-38 3-19-6-29-24-21z" fill="#b72f25"/>
    <path d="M166 232c55-34 128-36 194-5" fill="none" stroke="#e45a3f" stroke-width="18" stroke-linecap="round"/>
    <circle cx="195" cy="237" r="8" fill="#fff0c7" opacity=".6"/>
    <circle cx="322" cy="229" r="7" fill="#fff0c7" opacity=".6"/>
  </g>
</svg>
